<svg xmlns="http://www.w3.org/2000/svg" viewBox="0 0 504.12 504.12"><path d="M23.63 0H480.5a23.7 23.7 0 0 1 23.63 23.63V480.5a23.7 23.7 0 0 1-23.63 23.63H23.63A23.7 23.7 0 0 1 0 480.5V23.63A23.7 23.7 0 0 1 23.63 0z" fill="#efefef"/><path d="M47.26 94.52h409.6a15.8 15.8 0 0 1 15.76 15.76v346.58a15.8 15.8 0 0 1-15.76 15.76H47.26a15.8 15.8 0 0 1-15.75-15.76V110.28a15.8 15.8 0 0 1 15.75-15.76z" fill="#2b414d"/><path d="M110.28 165.41H338.7a7.9 7.9 0 0 1 7.88 7.88v7.88a7.9 7.9 0 0 1-7.88 7.88H110.28a7.9 7.9 0 0 1-7.88-7.88v-7.88a7.9 7.9 0 0 1 7.88-7.88z" fill="#e4e7e7"/><path d="M204.8 220.55h-94.52a7.9 7.9 0 0 0-7.88 7.88v7.88a7.9 7.9 0 0 0 7.88 7.88h94.52a7.9 7.9 0 0 0 7.88-7.88v-7.88a7.9 7.9 0 0 0-7.88-7.88zm-23.63 110.28h-70.9a7.9 7.9 0 0 0-7.87 7.88v7.88a7.9 7.9 0 0 0 7.88 7.87h70.89a7.9 7.9 0 0 0 7.88-7.87v-7.88a7.9 7.9 0 0 0-7.88-7.88zm212.68 0h-47.27a7.9 7.9 0 0 0-7.87 7.88v7.88a7.9 7.9 0 0 0 7.87 7.87h47.27a7.9 7.9 0 0 0 7.87-7.87v-7.88a7.9 7.9 0 0 0-7.87-7.88z" fill="#e35e53"/><path d="M393.85 220.55H252.06a7.9 7.9 0 0 0-7.87 7.88v7.88a7.9 7.9 0 0 0 7.87 7.88h141.79a7.9 7.9 0 0 0 7.87-7.88v-7.88a7.9 7.9 0 0 0-7.87-7.88zm0 165.42H110.28a7.9 7.9 0 0 0-7.88 7.88v7.87a7.9 7.9 0 0 0 7.88 7.88h283.57a7.9 7.9 0 0 0 7.87-7.88v-7.87a7.9 7.9 0 0 0-7.87-7.88z" fill="#26a6d1"/><path d="M299.32 275.7H110.28a7.9 7.9 0 0 0-7.88 7.87v7.88a7.9 7.9 0 0 0 7.88 7.87h189.04a7.9 7.9 0 0 0 7.88-7.87v-7.88a7.9 7.9 0 0 0-7.88-7.88zm0 55.13h-70.89a7.9 7.9 0 0 0-7.88 7.88v7.88a7.9 7.9 0 0 0 7.88 7.87h70.9a7.9 7.9 0 0 0 7.87-7.87v-7.88a7.9 7.9 0 0 0-7.88-7.88z" fill="#49b8a4"/><path d="M47.26 31.5c-8.66 0-15.75 7.1-15.75 15.76s7.09 15.76 15.75 15.76 15.76-7.1 15.76-15.76-7.1-15.75-15.76-15.75zm47.26 0c-8.66 0-15.75 7.1-15.75 15.76s7.09 15.76 15.75 15.76 15.76-7.1 15.76-15.76-7.1-15.75-15.76-15.75zm47.27 0c-8.67 0-15.76 7.1-15.76 15.76s7.09 15.76 15.75 15.76 15.76-7.1 15.76-15.76-7.1-15.75-15.75-15.75z" fill="#bfc3c5"/></svg>