<svg xmlns="http://www.w3.org/2000/svg" viewBox="0 0 512 512"><path d="M480 120H376l-24.88-49.68A28.4 28.4 0 0 0 328 56H184a28.4 28.4 0 0 0-23.12 14.32L136 120H32a32 32 0 0 0-32 32v272a32 32 0 0 0 32 32h448a32 32 0 0 0 32-32V152a32 32 0 0 0-32-32z" fill="#c9d5e3"/><circle cx="48" cy="176" r="16" fill="#f15642"/><path d="M192 72h128a8 8 0 0 1 8 8v16a8 8 0 0 1-8 8H192a8 8 0 0 1-8-8V80a8 8 0 0 1 8-8z" fill="#ecf0f9"/><path fill="#de333f" d="M0 232h512v112H0z"/><circle cx="256" cy="288" r="120" fill="#e2e7f0"/><path d="M186.16 353.76c34.49 40.27 95.09 44.96 135.36 10.47a96 96 0 0 0 4.88-141.35L186.16 353.76z" fill="#123247"/><path d="M326.4 222.88c-34.49-40.27-95.09-44.96-135.36-10.47a96 96 0 0 0-4.88 141.35L326.4 222.88z" fill="#35495c"/><path d="M216.48 288.56a40 40 0 0 1 68.96-27.52l23.44-21.84a72 72 0 0 0-105.2 98.16l23.44-21.84a40 40 0 0 1-10.64-26.96z" fill="#3c5366"/><path d="M296 288a40 40 0 0 1-68.96 27.52l-23.44 21.84a72 72 0 0 0 105.28-98.16l-23.44 21.84A40.02 40.02 0 0 1 296 288z" fill="#35495c"/><path d="M464 136H48a16 16 0 0 1-16-16h448a16 16 0 0 1-16 16z" fill="#d5e3ef"/><path d="M496 168v256a16 16 0 0 1-16 16H48a16 16 0 0 0-16 16h448a32 32 0 0 0 32-32V152a16 16 0 0 0-16 16z" fill="#b0c4d9"/><path fill="#c61c31" d="M496 232h16v112h-16z"/></svg>