<svg xmlns="http://www.w3.org/2000/svg" viewBox="0 0 32 40"><linearGradient id="a" gradientUnits="userSpaceOnUse" x1="1.81" y1="29.73" x2="30.19" y2="3.27"><stop offset="0" stop-color="#6af4f9"/><stop offset="1" stop-color="#2eb0ec"/></linearGradient><path d="M29 19v11a2 2 0 0 1-2 2H5a2 2 0 0 1-2-2.02V19.02a2 2 0 0 1-2-2v-5c0-1.1.9-2 2-2h10.31A9.86 9.86 0 0 1 7.6 8.24l.07-.04A5.32 5.32 0 0 1 5 3.2v-.03l.06-.42c.06-.37.14-.73.26-1.07.2-.22.43-.41.67-.6.4-.39.91-.7 1.5-.83L7.7.22l.27-.08c1.91-.45 3.8.23 5.05 1.6V1.7a10.07 10.07 0 0 1 2.74 4.92c.03.13.04.27.06.4h.36c.02-.13.03-.27.06-.4a10.1 10.1 0 0 1 2.72-4.92v.03A5.2 5.2 0 0 1 24 .13l.27.1c.07 0 .14 0 .21.02.6.13 1.1.44 1.5.83.24.18.47.38.67.6a5.43 5.43 0 0 1 .32 1.49v.02a5.46 5.46 0 0 1-.12 1.58 5.31 5.31 0 0 1-2.54 3.43l.07.03a9.83 9.83 0 0 1-5.7 1.78H29a2 2 0 0 1 2 2v5a2 2 0 0 1-2 2zm-11 1.01v10h8a1 1 0 0 0 1-1v-11h-9v2zm0-10h.61c-.2 0-.4-.03-.6-.04V10zm-13 9v10a1 1 0 0 0 1 1h8V18H5v1zm-1-7a1 1 0 0 0-1 1v4h11v-5H4zm10-2v-.04c-.2.01-.42.04-.62.04H14zm-.29-3.85a7.16 7.16 0 0 0-1.91-2.97v.02c-.83-.85-2.01-1.34-3.15-1.18l-.15.03h-.13c-.35.06-.64.2-.87.4l-.38.31a2.63 2.63 0 0 0-.11.84v.01a3.1 3.1 0 0 0 .16.91c.28.9.93 1.64 1.72 2.11l-.05.02a6.9 6.9 0 0 0 4.85 1.28l.32-.05c-.01-.56-.1-1.14-.3-1.73zM17 10.01h-2v21h2v-21zm6.16-3.35l-.05-.02a3.92 3.92 0 0 0 1.73-2.1 3.1 3.1 0 0 0 .15-.92l-.01-.25c-.02-.2-.05-.4-.1-.6a2.53 2.53 0 0 0-.38-.3 1.6 1.6 0 0 0-.87-.4h-.12l-.16-.04A3.8 3.8 0 0 0 20.2 3.2v-.02a7.16 7.16 0 0 0-1.91 2.97c-.2.59-.29 1.17-.3 1.73l.32.06a6.92 6.92 0 0 0 4.85-1.3zM29 16v-3a1 1 0 0 0-1-1H18v5h11v-1z" fill="url(#a)"/></svg>