<svg xmlns="http://www.w3.org/2000/svg" viewBox="0 0 32 40"><linearGradient id="a" gradientUnits="userSpaceOnUse" x1="1.81" y1="29.73" x2="30.19" y2="3.27"><stop offset="0" stop-color="#6af4f9"/><stop offset="1" stop-color="#2eb0ec"/></linearGradient><path d="M30 29H2a2 2 0 0 1-2-2V6c0-1.1.9-2 2-2h28a2 2 0 0 1 2 2v21a2 2 0 0 1-2 2zm0-22c0-.6-.4-1-1-1H3c-.6 0-1 .4-1 1v3c0 .6.4 1 1 1h26c.6 0 1-.4 1-1V7zm0 6c0-.6-.4-1-1-1H3c-.6 0-1 .4-1 1v13c0 .6.4 1 1 1h26c.6 0 1-.4 1-1V13zm-2.5-3c-.8 0-1.5-.7-1.5-1.5S26.7 7 27.5 7s1.5.7 1.5 1.5-.7 1.5-1.5 1.5zm0-2c-.3 0-.5.2-.5.5s.2.5.5.5.5-.2.5-.5-.2-.5-.5-.5zm-4 2c-.8 0-1.5-.7-1.5-1.5S22.7 7 23.5 7s1.5.7 1.5 1.5-.7 1.5-1.5 1.5zm0-2c-.3 0-.5.2-.5.5s.2.5.5.5.5-.2.5-.5-.2-.5-.5-.5zM20 10H4c-.6 0-1-.4-1-1V8c0-.6.4-1 1-1h16c.6 0 1 .4 1 1v1c0 .6-.4 1-1 1zm0-1.7c0-.2-.2-.3-.3-.3H4.3c-.1 0-.3.1-.3.3v.3c0 .3.2.4.3.4h15.3c.3 0 .4-.1.4-.3v-.4z" fill="url(#a)"/></svg>