<svg xmlns="http://www.w3.org/2000/svg" viewBox="0 0 32 40"><linearGradient id="a" gradientUnits="userSpaceOnUse" x1="1.81" y1="29.73" x2="30.19" y2="3.27"><stop offset="0" stop-color="#6af4f9"/><stop offset="1" stop-color="#2eb0ec"/></linearGradient><path d="M30 20s-9.23.06-14.83.65c-2.61.28-5.06 1-5.87 1.25l.18 1.28v.01c.1.46.5.81.99.81H29a1 1 0 0 1 0 2H10.47a3 3 0 0 1-2.97-2.56l-.4-2.88c-.06-.18-.1-.36-.1-.56L5 6l.01-.1L4.74 4H1a1 1 0 1 1 0-2h3.75a2 2 0 0 1 1.97 1.67l.05.35L7 4h23a2 2 0 0 1 2 2v12a2 2 0 0 1-2 2zm0-13a1 1 0 0 0-1-1H8.16c-.52 0-.94.4-.98.91l1.7 12.06c.14.4.5.7.94.7 0 0 1.72-.7 4.68-1.05C19.5 18.04 29 18 29 18a1 1 0 0 0 1-1V7zM12 27a2 2 0 1 1 0 4 2 2 0 0 1 0-4zm0 3a1 1 0 1 0 0-2 1 1 0 0 0 0 2zm14-3a2 2 0 1 1 0 4 2 2 0 0 1 0-4zm0 3a1 1 0 1 0 0-2 1 1 0 0 0 0 2z" fill="url(#a)"/></svg>