<svg xmlns="http://www.w3.org/2000/svg" viewBox="0 0 32 40"><linearGradient id="a" gradientUnits="userSpaceOnUse" x1="1.81" y1="29.73" x2="30.19" y2="3.27"><stop offset="0" stop-color="#6af4f9"/><stop offset="1" stop-color="#2eb0ec"/></linearGradient><path d="M31.42 30L30 31.42a2 2 0 0 1-2.83 0l-5.3-5.3-3.45 3.46a1.42 1.42 0 0 1-2.42-1V18c0-1.1.9-2 2-2h10.58a1.42 1.42 0 0 1 1.01 2.4l-3.47 3.48 5.3 5.3a2 2 0 0 1 0 2.82zm-2.13-2.12l-6.08-6.09L27 18h-8a1 1 0 0 0-1 1v8l3.8-3.8 6.08 6.1a1 1 0 0 0 1.42 0 1 1 0 0 0 0-1.42zM14 16H3.42a1.42 1.42 0 0 1-1.01-2.4l3.47-3.48-5.3-5.3A2 2 0 0 1 .58 2L2 .58a2 2 0 0 1 2.83 0l5.3 5.3 3.46-3.46a1.42 1.42 0 0 1 2.41 1V14a2 2 0 0 1-2 2zm0-11l-3.8 3.8-6.08-6.1a1 1 0 0 0-1.41 0 1 1 0 0 0 0 1.42l6.08 6.09L5 14h8a1 1 0 0 0 1-1V5z" fill="url(#a)"/></svg>