<svg xmlns="http://www.w3.org/2000/svg" viewBox="0 0 32 40"><linearGradient id="a" gradientUnits="userSpaceOnUse" x1="1.81" y1="29.73" x2="30.19" y2="3.27"><stop offset="0" stop-color="#6af4f9"/><stop offset="1" stop-color="#2eb0ec"/></linearGradient><path d="M24 18.51v.09a10 10 0 0 0-1.92 4.5h-.03c-.07.38-.45.73-1.05 1.02V29a2 2 0 0 1-2 2h-1a1 1 0 0 1-1 1h-2a1 1 0 0 1-1-1h-1a2 2 0 0 1-2-2v-4.88c-.6-.3-.98-.64-1.04-1.01H9.9A9.96 9.96 0 0 0 8 18.6v-.09c-1.85-1.96-3-4.6-3-7.51a11 11 0 1 1 19 7.51zM14 29h4a1 1 0 0 0 1-1v-.54l-5.4 1.45c.12.06.26.09.4.09zm-1-1v.03l6-1.6V25v-.04l-6 1.61V28zm0-3v.54l5.4-1.45a.97.97 0 0 0-.4-.1h-5V25zm3-22.99a8.99 8.99 0 0 0-6.71 14.95 12.03 12.03 0 0 1 2.1 3.92c.1.61.11 1.1.11 1.12 0 .55 2.01 1 4.5 1s4.5-.45 4.5-1c0-.01.01-.5.12-1.12a11.99 11.99 0 0 1 2.1-3.92A8.99 8.99 0 0 0 16 2.01h-.01zm0 4V5A6 6 0 0 1 22.01 11h-1.03A5 5 0 0 0 16 6z" fill="url(#a)"/></svg>