<svg xmlns="http://www.w3.org/2000/svg" viewBox="0 0 503.53 503.53"><path d="M289.87 397.98c-3.15 3.15-9.85 3.94-14.18-.4-39.78-40.56-97.67-34.26-125.63-5.9-18.52 18.9-28.76 49.23-42.15 67.74-7.09 10.24-16.14 20.48-25.99 30.33 0 0-11.82 13.39-33.48 13.39A48.41 48.41 0 0 1 0 454.7c0-20.88 13.4-33.48 13.4-33.48l.38-.4.4-.39c9.45-9.45 19.3-18.12 29.14-25.2 18.51-13.4 48.45-23.64 66.96-42.54 27.96-28.36 34.26-86.65-5.52-126.82-1.97-1.97-3.15-5.12-2.75-7.48 0-2.76 1.57-5.52 3.15-7.1l50.8-51.2 184.32 186.3-50.4 51.6z" fill="#415661"/><path d="M105.55 211.3c-1.57 1.57-2.76 4.33-3.15 7.09 0 2.75.79 5.51 2.76 7.48 39.78 40.17 33.87 98.46 5.51 126.82-18.51 18.9-48.84 29.14-66.95 42.53-9.85 7.1-19.7 15.76-29.15 25.2l-.4.4-.39.4C18.51 416.49.4 431.46.4 454.69c0 13.4 5.52 25.21 14.18 34.27l230-229.61-76.4-87.44-11.81-11.81-50.8 51.2z" fill="#3a4d57"/><path d="M330.44 4.92L499 173.1a13.79 13.79 0 0 1 0 19.69l-109.1 109.1a13.79 13.79 0 0 1-19.68 0L201.26 133.7a13.79 13.79 0 0 1 0-19.7L310.75 4.93c5.12-5.51 14.17-5.51 19.69 0z" fill="#f4f0d3"/><path d="M200.47 115.2l197.31 178.41-72.07 68.14-192.98-178.02 67.74-68.53z" fill="#d3d5d6"/><path d="M200.47 115.2L300.1 205l-69.71 68.92-97.67-89.8 67.74-68.92z" fill="#c8cacb"/><path d="M278.06 259.35a15.7 15.7 0 0 0 0 22.45 15.7 15.7 0 0 0 22.44 0 15.7 15.7 0 0 0 0-22.45c-5.9-5.91-16.14-5.91-22.44 0zm58.29 35.44a15.7 15.7 0 0 0-22.45 0 15.7 15.7 0 0 0 0 22.45 15.7 15.7 0 0 0 22.45 0c5.9-6.3 5.9-16.14 0-22.45z" fill="#bdbfc0"/><path d="M484.82 158.92a6.9 6.9 0 0 0-9.84 0l-85.07 84.67a6.9 6.9 0 0 0 0 9.85 6.9 6.9 0 0 0 9.84 0l85.08-84.68a6.9 6.9 0 0 0 0-9.84zm-23.63-23.63a6.9 6.9 0 0 0-9.84 0l-85.07 84.67a6.9 6.9 0 0 0 0 9.85 6.9 6.9 0 0 0 9.84 0l85.07-84.68a6.9 6.9 0 0 0 0-9.84zm-47.65-47.26a6.9 6.9 0 0 0-9.85 0l-85.07 84.28a6.9 6.9 0 0 0 0 9.84 6.9 6.9 0 0 0 9.85 0l85.07-84.28a6.9 6.9 0 0 0 0-9.84zM389.9 64.39a6.9 6.9 0 0 0-9.85 0L295 148.68a6.9 6.9 0 0 0 0 9.84 6.9 6.9 0 0 0 9.85 0l85.07-84.28a6.9 6.9 0 0 0 0-9.85zm-24.03-24.02a6.9 6.9 0 0 0-9.84 0l-84.68 84.68a6.9 6.9 0 0 0 0 9.84 6.9 6.9 0 0 0 9.85 0l84.67-84.28a7.37 7.37 0 0 0 0-10.24zm-23.63-23.63a6.9 6.9 0 0 0-9.84 0l-85.08 84.68c-2.75 2.75-2.75 7.08 0 9.84s7.1 2.76 9.85 0l85.07-84.68a6.9 6.9 0 0 0 0-9.84z" fill="#e8e4c8"/><path d="M499.4 172.7L330.44 4.53a13.79 13.79 0 0 0-19.7 0l-12.2 12.2 74.83 74.05c5.9 11.03 4.33 24.81-6.3 34.27l-9.46 11.02c-6.3 5.52-6.3 14.97 0 20.48s16.94 5.12 22.06-.78l-29.15 28.35c-5.9 5.52-5.9 14.57 0 20.09s14.97 5.51 20.88 0l13.39-13.4a14.26 14.26 0 0 0 0 20.1 13.79 13.79 0 0 0 19.69 0l24.42-25.6c11.03-11.43 29.14-11.43 40.56 0l18.52 18.11L499.4 192c5.51-4.73 5.51-13.78 0-19.3z" fill="#e2574c"/><path d="M205.59 164.82a15.7 15.7 0 0 1 0 22.45 15.7 15.7 0 0 1-22.45 0 15.7 15.7 0 0 1 0-22.45 15.7 15.7 0 0 1 22.45 0zm35.44 35.45a15.7 15.7 0 0 1 0 22.45 15.7 15.7 0 0 1-22.45 0 15.7 15.7 0 0 1 0-22.45c6.3-6.3 16.55-6.3 22.45 0z" fill="#b4b5b6"/><path d="M367.46 124.65L358 135.68c-6.3 5.51-6.3 14.57 0 20.48 5.9 5.12 15.36 5.12 20.87.4l9.06-8.67c-5.52 5.51-15.76 6.3-22.06.79-6.3-5.52-6.3-14.57 0-20.48l9.46-11.03a28.02 28.02 0 0 0 6.3-33.87L306.8 9.65l-7.88 7.88 74.83 73.64a27.46 27.46 0 0 1-6.3 33.48zm-8.67 71.68c-5.51-5.12-5.51-13.78-.78-19.3l-7.1 6.7c-5.9 5.51-5.9 14.57 0 20.08s14.97 5.52 20.88 0l7.88-7.87a14.86 14.86 0 0 1-20.88.4zm33.88 7.1a14.26 14.26 0 0 1 0-20.1l-7.88 7.88c-5.52 5.52-5.52 14.58 0 20.09s14.18 5.51 19.69 0l6.3-6.3c-5.51 3.94-13 3.15-18.11-1.58zm102.79-7.5l-18.51-17.72a27.83 27.83 0 0 0-40.17 0l-5.52 5.52c11.03-9.06 27.57-8.27 37.81 1.97l18.51 17.72L499 192l-3.54 3.94z" fill="#d65348"/></svg>