<svg xmlns="http://www.w3.org/2000/svg" viewBox="0 0 220.5 220.5"><path d="M215.5 189.1c0 7-2.7 13.7-7.7 18.7-4.9 5-11.7 7.8-18.7 7.7-7 0-13.7-2.8-18.7-7.7L111 148.3l-59.4 59.4c-4.9 5-11.7 7.7-18.7 7.7s-13.7-2.8-18.7-7.7c-5-5-7.7-11.6-7.7-18.7s2.7-13.7 7.7-18.7L73.7 111 14.2 51.5c-5-4.9-7.7-11.7-7.7-18.7 0-7.1 2.7-13.7 7.7-18.7 4.9-5 11.7-7.7 18.7-7.7s13.7 2.7 18.6 7.7L111 73.7l59.5-59.5c4.9-5 11.6-7.8 18.6-7.7 7.1 0 13.7 2.7 18.7 7.7 5 4.9 7.7 11.7 7.7 18.7s-2.7 13.7-7.7 18.7L148.3 111l59.5 59.4c4.9 5 7.7 11.7 7.7 18.7zm-16-10.4l-63.6-63.6a5.73 5.73 0 0 1 0-8.2l63.6-63.6c2.8-2.8 4.3-6.5 4.3-10.4 0-3.9-1.5-7.6-4.3-10.4a14.6 14.6 0 0 0-10.4-4.3c-3.9 0-7.6 1.5-10.4 4.3l-63.6 63.6a5.92 5.92 0 0 1-8.2 0L43.3 22.5c-5.6-5.6-15.3-5.6-20.8 0a14.6 14.6 0 0 0-4.3 10.4c0 3.9 1.5 7.6 4.3 10.4L86 106.9c2.3 2.3 2.3 6 0 8.2l-63.6 63.6c-2.8 2.8-4.3 6.5-4.3 10.4s1.5 7.6 4.3 10.4c5.5 5.6 15.3 5.6 20.8 0l63.6-63.6c2.3-2.3 6-2.3 8.2 0l63.6 63.6c5.5 5.6 15.3 5.6 20.8 0 2.8-2.8 4.3-6.5 4.3-10.4.1-3.9-1.4-7.6-4.2-10.4z" fill="#fff" stroke="#fff" stroke-width="10.43" stroke-miterlimit="10"/></svg>