<svg xmlns="http://www.w3.org/2000/svg" viewBox="0 0 32 40"><linearGradient id="a" gradientUnits="userSpaceOnUse" x1="1.81" y1="29.73" x2="30.19" y2="3.27"><stop offset="0" stop-color="#6af4f9"/><stop offset="1" stop-color="#2eb0ec"/></linearGradient><path d="M29 27c-1.75 0-2.84-1.25-4-3-.3-.45-.76-1.2-1.23-2.12a3.98 3.98 0 0 1-6.21-.88h-3.12a3.98 3.98 0 0 1-6.2.87A24.2 24.2 0 0 1 7 24c-1.15 1.75-2.25 3-4 3s-3-1.2-3-3C0 22.37 1.6 8.8 3.7 7.49c.36-.3.8-.5 1.3-.5C5 5.9 5.87 5 6.94 5h4.12C12.13 5 13 5.9 13 7h6c0-1.1.87-2 1.94-2h4.12C26.13 5 27 5.9 27 7a2 2 0 0 1 1.3.49C30.4 8.8 32 22.37 32 24c0 1.8-1.25 3-3 3zm-8-6a2 2 0 1 0 0-4 2 2 0 0 0 0 4zm-10 0a2 2 0 1 0 0-4 2 2 0 0 0 0 4zM26.93 9.65a.99.99 0 0 0-.64-.6.68.68 0 0 0-.26-.05H25V8a1 1 0 0 0-1-1h-2a1 1 0 0 0-1 1v1H11V8a1 1 0 0 0-1-1H8a1 1 0 0 0-1 1v1H6h-.02-.01a.66.66 0 0 0-.26.06c-.3.09-.53.3-.64.59C3.21 12.3 2 22.37 2 23.5c0 1.04.35 1.48 1.19 1.48.62 0 1.66-1.27 2.39-2.58.55-1 1.5-3.32 3.06-5.26h.03A2.98 2.98 0 0 1 14 19h4a3 3 0 0 1 5.35-1.89c1.58 1.95 2.53 4.3 3.08 5.3.73 1.3 1.77 2.58 2.4 2.58.84 0 1.18-.44 1.18-1.48 0-1.14-1.22-11.2-3.08-13.86zm-2.43 3.38a1.53 1.53 0 1 1 0-3.06 1.53 1.53 0 0 1 0 3.06zm0-2.05a.52.52 0 1 0 0 1.04.52.52 0 0 0 0-1.04zm-4 4.05a1.53 1.53 0 1 1 0-3.06 1.53 1.53 0 0 1 0 3.06zm0-2.05a.52.52 0 1 0 0 1.04.52.52 0 0 0 0-1.04zM10 14a1 1 0 0 1-1 1H8a1 1 0 0 1-1-1 1 1 0 0 1-1-1v-1a1 1 0 0 1 1-1 1 1 0 0 1 1-1h1a1 1 0 0 1 1 1 1 1 0 0 1 1 1v1a1 1 0 0 1-1 1zm-.5-2H9v-.5a.5.5 0 0 0-1 0v.5h-.5a.5.5 0 1 0 0 1H8v.5a.5.5 0 0 0 1 0V13h.5a.5.5 0 0 0 0-1z" fill="url(#a)"/></svg>