<svg xmlns="http://www.w3.org/2000/svg" width="35" height="17" viewBox="0 0 35 17">
  <defs>
    <style>
      .cls-1 {
        fill: #494949;
        fill-rule: evenodd;
        opacity: 0.4;
      }
    </style>
  </defs>
  <path id="arrow_icon" data-name="arrow icon" class="cls-1" d="M663.231,3794.95l7.956-7.72a0.8,0.8,0,0,1,.562-0.23,0.786,0.786,0,0,1,.795.77,0.756,0.756,0,0,1-.233.55l-6.6,6.41h31.492a0.77,0.77,0,1,1,0,1.54H665.714l6.6,6.41a0.756,0.756,0,0,1,.233.55,0.786,0.786,0,0,1-.795.77,0.8,0.8,0,0,1-.562-0.23l-7.956-7.72A0.766,0.766,0,0,1,663.231,3794.95Z" transform="translate(-663 -3787)"/>
</svg>
