<svg xmlns="http://www.w3.org/2000/svg" viewBox="0 0 612 612" fill="#da4835"><path d="M296.07 247.39c0-31.3-18.7-80.04-54.8-80.04-11.3 0-23.48 5.65-30.46 14.39-7.4 9.12-9.57 20.86-9.57 32.18 0 29.13 16.97 77.42 54.38 77.42 10.88 0 22.62-5.23 29.6-12.18 9.99-10.05 10.85-23.96 10.85-31.77z"/><path d="M612 306C612 137 475 0 306 0S0 137 0 306s137 306 306 306 306-137 306-306zm-211.84-58.84h23.54v47.07h47.07v23.54H423.7v47.07h-23.54v-47.07H353.1v-23.54h47.06v-47.07zm-258.93 175.1c0-15.67 7.82-37.84 33.5-53.08 26.95-16.53 63.5-18.7 83.06-20-6.1-7.85-13.05-16.11-13.05-29.58 0-7.4 2.17-11.73 4.34-16.97-4.78.42-9.57.87-13.93.87-46.1 0-72.2-34.39-72.2-68.3 0-20 9.13-42.2 27.86-58.28 24.8-20.44 54.38-23.92 77.86-23.92h89.6l-27.84 15.63h-26.96c9.98 8.27 30.88 25.68 30.88 58.73 0 32.18-18.28 47.4-36.53 61.75-5.64 5.65-12.18 11.74-12.18 21.31s6.53 14.8 11.3 18.7l15.65 12.18c19.14 16.08 36.53 30.88 36.53 60.92 0 40.87-39.59 82.2-114.39 82.2-63.04.03-93.5-29.98-93.5-62.17z"/><path d="M272.59 361.77c-3.48-.41-5.65-.41-9.99-.41-3.92 0-27.4.86-45.67 6.98-9.57 3.48-37.42 13.9-37.42 44.79s30.02 53.05 76.56 53.05c41.75 0 63.92-20 63.92-46.96 0-22.2-14.32-33.94-47.4-57.45z"/></svg>